<?xml version="1.0" encoding="utf-8"?>
<!-- Generator: Adobe Illustrator 24.3.0, SVG Export Plug-In . SVG Version: 6.00 Build 0)  -->
<svg version="1.1" id="ad7c1fe1-eb22-473c-bc85-8b4fe073a50d"
	 xmlns="http://www.w3.org/2000/svg" xmlns:xlink="http://www.w3.org/1999/xlink" x="0px" y="0px" viewBox="0 0 636.2 359.8"
	 style="enable-background:new 0 0 636.2 359.8;" xml:space="preserve">
<style type="text/css">
	.st0{opacity:0.5;}
	.st1{fill:#D0D2D5;}
	.st2{opacity:0.1;enable-background:new    ;}
	.st3{fill:#3F3D56;}
	.st4{fill:url(#SVGID_1_);}
	.st5{fill:#FBBEBE;}
	.st6{fill:#F86D70;}
	.st7{fill:#E68800;}
	.st8{fill:#434175;}
	.st9{opacity:0.1;fill:#F2B705;enable-background:new    ;}
	.st10{fill:none;stroke:#3F3D56;stroke-width:12;stroke-miterlimit:10;}
	.st11{fill:#2F2E41;}
	.st12{fill:#F2B705;}
	.st13{fill:url(#SVGID_2_);}
	.st14{opacity:0.1;}
</style>
<g class="st0">
	<path class="st1" d="M870.2,222.9H976c7.8,0,14.1,6.3,14.1,14.1v105.8c0,7.8-6.3,14.1-14.1,14.1H870.2c-7.8,0-14.1-6.3-14.1-14.1
		V237C856.1,229.2,862.4,222.9,870.2,222.9z"/>
	<path class="st2" d="M904.1,261.4h38c0,0,32,28,0,57h-38C904.1,318.4,872.1,292.4,904.1,261.4z"/>
	<rect x="908.1" y="277.4" class="st3" width="5" height="15"/>
	<rect x="933.1" y="275.4" class="st3" width="5" height="18"/>
	<path class="st3" d="M923.1,301.4L923.1,301.4c3.3,0,6,2.7,6,6v5l0,0h-12l0,0v-5C917.1,304.1,919.8,301.4,923.1,301.4z"/>
</g>
<linearGradient id="SVGID_1_" gradientUnits="userSpaceOnUse" x1="2757.5918" y1="855.3038" x2="2757.5918" y2="1162.6405" gradientTransform="matrix(0.51 0.86 0.86 -0.51 -1698.416 -1871.3119)">
	<stop  offset="0" style="stop-color:#808080;stop-opacity:0.25"/>
	<stop  offset="0.54" style="stop-color:#808080;stop-opacity:0.12"/>
	<stop  offset="1" style="stop-color:#808080;stop-opacity:0.1"/>
</linearGradient>
<path class="st4" d="M517.2,93.7c3.2-0.1,6.3,0.2,9.5,0c2.9-0.1,5.8-0.6,8.7-0.9c4.9-0.5,9.9-0.5,14.9-0.7c3.3-0.1,6.7-0.5,9.3-2.4
	c2.5-1.8,3.9-4.7,6.1-6.8c9-8.6,15.2-20.2,23.2-29.8c2-2.4,4.1-4.9,5.9-7.5c3.5-5,5.9-10.7,8.4-16.3c1-2.1,1.8-4.2,2.4-6.4
	c0.5-1.8,0.7-3.6,1.3-5.3c1.2-3.5,4.2-6.6,4.6-10.3l-0.4,0.1c3.6-4.6,3.1-12.7,4.9-18.6c1.2-3.5,2.5-7,4.2-10.3l6.7-14.6
	c1.2-2.5,2.3-5.1,4.3-7c2.4-2.3,5.8-3.5,8.2-5.8c1.4-1.4,2.5-3.2,3.1-5.1l0.2,0.2c1.3,1.2,2.3,2.8,3.5,4.1c2.7,2.8,6.4,4.4,9.2,7.1
	c1.4,1.4,2.5,3.1,4.2,4.1c1.8,1,4,0.7,5.4-0.7c4.9-4.3,12.2-4.7,17.5-8.5c1.5-1.1,2.8-2.4,4.1-3.5c3.3-2.6,6.9-4.9,10.7-6.7
	c2.2,0,4.4,0.4,6.6,0.9c3.1,0.9,6.1,2.3,9.3,2.2c2.9-0.1,5.6-1.2,7.8-3c1.6-1.3,3.1-3,3.4-5c0.1-2.1-0.8-4.1-2.4-5.4
	c-0.2-0.2-0.5-0.4-0.7-0.5c-0.1-1.8-1-3.5-2.4-4.7c-1.6-1.3-3.5-2.2-5.5-2.8c-1.1-0.4-2.3-0.7-3.4-0.8c-1.8,0.1-3.6,0.5-5.3,1.2
	c-3.4,1.1-6.9,1.8-10.5,2.2c-0.6,0.1-1.9-0.1-3-0.1l-0.4-1.1c-4.2,1.9-9,0.3-13.6,0.3c-2.2,0-4.4,0.4-6.6,0.5
	c-2.4,0.1-4.9,0-7.3-0.2l-7.4-0.5c-3.2-0.2-6.3-0.5-9.4-1c-0.8-1.7-1.7-3.4-2.6-5c-1.6-2.7-3.4-5.3-5.5-7.6c0.8-0.7,1.7-1.4,2.6-2
	l0.2-0.1c0.2-0.1,0.5-0.3,0.8-0.4c9.4,4.5,20.7,0.5,25.2-9c1.2-2.5,1.8-5.3,1.8-8.1c0.5-0.2,1.1-0.5,1.6-0.7
	c0.3-0.2,0.6-0.3,0.9-0.5l0.4-0.3c0.3-0.2,0.5-0.4,0.8-0.7c0.1-0.1,0.2-0.2,0.3-0.4c0.2-0.3,0.4-0.5,0.6-0.8l0,0
	c0.1-0.1,0.1-0.2,0.2-0.3s0-0.1,0-0.1s0.1-0.2,0.1-0.3s0-0.1,0-0.2l0.1-0.2c0-0.1,0-0.1,0-0.2c0-0.1,0-0.2,0-0.2v-0.2
	c0-0.1,0-0.1,0-0.2c0-0.1,0-0.1,0-0.2c0-0.1,0-0.2,0-0.2c0-0.1,0-0.1,0-0.2v-0.3c0-0.1,0-0.2,0-0.2c0-0.1,0-0.1,0-0.2v-0.2v-0.2
	c0-0.1,0-0.2,0-0.3c0-0.1,0-0.1,0-0.2c0-0.1,0-0.2,0-0.3c0-0.1,0-0.1,0-0.2s0-0.2-0.1-0.3v-0.1l-0.1-0.3v-0.1c0-0.1-0.1-0.2-0.1-0.3
	v-0.1l-0.1-0.4v-0.1c0-0.2-0.1-0.3-0.2-0.5c-0.8-2.2-1.6-4.3-2.4-6.4c-0.6-1.8-1.6-3.4-2.8-4.9c-1.8-1.9-4.3-2.8-6.4-4.3
	c-2.5-1.8-4.4-4.2-6.5-6.5s-4.7-4.2-7.7-4.6c-2.4-0.1-4.8,0.3-7.1,1.3c-18.4,6.8-33.4,20.1-49.9,30.7c-6.4,4.1-13.6,8-21.2,7.5
	l6.7,10.6c0.3,0.5,0.7,1,1,1.5s0.7,1,1.1,1.5c0.9,1.3,2.1,2.4,3.5,3.2c0.3,0.2,0.7,0.4,1.1,0.5c0.3,0.1,0.7,0.2,1,0.3
	c2.4,0.6,5,0.1,7.4-0.4c0.8-0.2,1.7-0.3,2.5-0.5l1-0.3h0.2c0,0.1,0,0.1,0,0.2c-0.6,1-1.1,1.9-1.6,2.9c-1.5,3.6-2.7,7.3-3.6,11.1
	c-1.9,7.5-3.8,15.2-3.3,22.9c0.2,2.6,0.6,5.3-0.1,7.8c-0.4,1.2-1,2.5-0.7,3.7c0.4,0.7,0.7,1.4,0.9,2.2c0.2,1.2-0.8,2.2-1.4,3.1
	s-1,2.5-0.1,3.2c-1.9,0.7-3.3,2.4-3.6,4.4c0,0.6-0.1,1.2-0.3,1.7c-0.3,0.4-0.6,0.7-1,0.9c-1,0.9-1.7,2-1.9,3.4c-1.9,0-3.6,1.9-5.3,3
	c-1.5,0.8-3.2,1.4-4.8,1.8c-4.8,1.5-9,4.7-12.8,8.1c-2.1,1.8-4.2,3.9-5.1,6.5c-0.3,0.9-0.5,1.8-0.7,2.6c-0.5,1.7-1.3,3.3-2.3,4.7
	c-1.9,3-4.3,5.6-7,7.8c-1.4,1.1-2.6,2.4-3.6,3.9c-1.5,2.2-4.6,2.9-6.3,5c-0.6,1-1.3,2.1-2,3c-1.3,1.2-3.2,1.3-4.8,2
	c-3.8,1.6-5.5,6-8.9,8.3c-0.2,0.2-0.4,0.2-0.7,0.2c-0.3,0-0.5-0.4-0.7-0.5c-0.5-0.3-1.1-0.1-1.7,0.1s-1.4,0.1-1.5-0.5
	c-8.2-4.9-16.2-10.3-24.3-15.2l-3.7-2.2L462.1,5.1c-0.5-0.3-1.1-0.3-1.6,0l-0.6,0.4c-1-1.1-2.1-2-2.8-2.8c-0.3-0.3-0.5-0.6-0.8-0.9
	c0.2,0,0.4,0,0.5-0.1c0.5-0.3,0.7-0.8,0.4-1.3c-0.2-0.5-0.5-0.9-0.9-1.2c-0.9-0.8-1.7-1.8-2.4-2.7c-0.8-1.2-1.7-2.4-2.6-3.4
	c-1-1.1-2.4-1.7-3.9-1.6c-0.8,0.2-1.6,0.5-2.3,0.9c-2.7,1.6-5.3,3.5-7.5,5.8c-0.2,0.1-0.3,0.4-0.3,0.6c0,0.2,0.2,0.4,0.2,0.5
	c0,0.2-0.1,0.4-0.2,0.5c-1.3,1.7-2.9,3.1-4.7,4.3c-2.5,1.9-5,3.9-7.5,5.9c-1.5,1.1-2.7,2.5-3.5,4.2c-0.5,2-0.3,4.1,0.6,5.9
	c1.7,3.9,4.6,7.1,7.5,10.3c0.5,0.6,1.1,1.1,1.9,1.3c0.6,0.1,1.2-0.1,1.7-0.4c1.8-1.2,2.1-3.6,2.2-5.7c0-1,0.1-1.9,0.2-2.9
	c0-0.2,0-0.4,0.1-0.6c0.2-0.2,0.4-0.4,0.6-0.5l2.8-1.4c-0.1-0.1-0.2-0.3-0.3-0.4c2.1-0.8,4.3-0.9,6.5-0.4c1.5,0.4,2.8,1.3,4.2,1.8
	c-0.2,1.9,0.1,3.8,1,5.4c5.1,0.5,9.8,2.8,14.3,5.1c3.7,1.8,7.3,3.9,10.8,6.1c2.8,1.8,5.6,3.8,8.3,5.8c3.8,2.8,7.5,5.9,11.2,8.9
	c2.4,2.1,5,4,7.7,5.7c7.2,4,16.9,4.2,23.5-0.9c8.4-6.4,19-9.7,28-15.2c2.7-1.5,5.1-3.4,7.2-5.6c0,0.3-0.1,0.5-0.1,0.8
	c-0.5,2.5-2.7,4.3-3.5,6.8c-0.6,2-0.4,4.3-1.6,6c-0.9,1.3-2.7,2.2-2.7,3.8c0,0.4,0.1,0.9,0.1,1.3c-0.1,0.6-0.2,1.1-0.5,1.6
	c-1,2.2-2.1,4.6-4.2,6c-0.8,0.5-1.8,1-2,2c0,0.3-0.1,0.5-0.2,0.8c-0.3,0.5-1.1,0.2-1.6,0.4c-0.8,0.3-0.9,1.2-1.2,2
	c-0.6,1.3-1.9,2.1-3.3,1.9c-6.8-0.8-13.5,2.3-20.4,2.1c-2.4-0.1-4.7-0.3-7.1-0.3c-7.3-0.1-14.5,2-21.5,4c-0.8,1.4-1.3,2.9-1.4,4.5
	c-2.4,0.6-4.9,0.7-7.3,0.3c-0.6-0.1-1.2-0.2-1.8-0.2c0.2-0.5,0.2-0.9,0.2-1.4c-2.9,0.9-5.6,2.1-8.2,3.7c-1.7,1-3.5,2.4-3.7,4.4
	c0,0.8,0.1,1.5,0.3,2.2l0.9,3.5c0.1,0.7,0.4,1.3,0.8,1.8c0.3,0.3,0.7,0.5,1,0.8c0.3,0.4,0.5,0.8,0.5,1.3l0.8,3.1
	c0.3,1,0.5,2.1,0.6,3.1c0.1,1,0,1.9,0.1,2.9c0.1,1.6,0.3,3.2,0.7,4.7l1.1,5.5c0.2,1.5,0.7,3.1,1.3,4.5c0.5,1,1.1,1.9,1.5,2.9
	c0.3,0.8,0.4,1.6,0.8,2.3c0.6,1.2,1.7,2.1,2.9,2.7c0.4,0.3,0.9,0.4,1.4,0.4c1.4,0,2.4-1.3,3.1-2.6c1.3-2.3,2-4.9,2.1-7.5
	c0-1.1-0.2-2.1-0.3-3.2c-0.2-3,0.6-5.9,0.6-8.9c0.1-0.8-0.5-1.6-1.2-1.8c0.1-2.5,0.1-5.2,1.4-7.4c0.7-1,1.5-1.9,2.4-2.6
	c0.4,1.2,0.8,2.4,1.2,3.5C501.3,96,509.2,93.9,517.2,93.7z M679.8-59.9c-0.5,0.2-1.1,0.4-1.7,0.6c-4.7,1.6-10,3.1-14.8,2
	c-1.5-0.4-2.8-1.1-4.1-2l-0.3-0.2C665.7-60.7,672.8-60.5,679.8-59.9z"/>
<path class="st5" d="M706.8-70.2c1.7-0.7,3.5-1.1,5.3-1.2c1.2,0.1,2.3,0.4,3.4,0.8c2,0.6,3.8,1.5,5.4,2.8c1.6,1.3,2.5,3.3,2.4,5.4
	c-0.2,2-1.7,3.7-3.3,5c-2.2,1.8-4.9,2.9-7.8,3c-3.2,0.1-6.2-1.4-9.2-2.2c-2.2-0.6-4.5-1-6.9-1c-1.2,0.1-2.3,0-3.5-0.2
	c-1.2-0.2-2.2-1-2.7-2.1c-0.3-1-0.3-2,0-3c0.2-1.2,0.2-4.2,1.3-4.9c0.9-0.6,4-0.1,5.1-0.2C699.9-68.4,703.4-69.1,706.8-70.2z"/>
<path class="st6" d="M635.4-90.3c3,3,5.6,6.3,7.8,10c3.5,6.1,5.8,13.3,11.1,18c1.4,1.2,2.9,2.3,4.5,3.2c1.2,0.9,2.6,1.6,4.1,2
	c4.8,1.1,10.1-0.4,14.7-2c4.6-1.6,9.1-3.7,13.3-6c0,1.9,0.6,3.8,1.6,5.5c1.1,1.6,3.4,2.5,5,1.5c-4.1,1.9-8,4.3-11.5,7.1
	c-1.4,1.2-2.6,2.4-4.1,3.5c-5.3,3.8-12.6,4.2-17.4,8.5c-1.5,1.3-3.7,1.6-5.4,0.6c-1.7-1-2.8-2.7-4.2-4.1c-2.7-2.7-6.5-4.3-9.2-7.1
	c-1.2-1.3-2.2-2.8-3.5-4.1c-1.8-1.8-4.2-3-5.9-5c-1.2-1.5-2-3.3-3.2-4.8c-1-1.4-2.2-2.6-3.1-4c-2.2-3.5-2.2-8-0.9-11.9
	S633.1-86.9,635.4-90.3z"/>
<path class="st7" d="M635.4-90.3c3,3,5.6,6.3,7.8,10c3.5,6.1,5.8,13.3,11.1,18c1.4,1.2,2.9,2.3,4.5,3.2c1.2,0.9,2.6,1.6,4.1,2
	c4.8,1.1,10.1-0.4,14.7-2c4.6-1.6,9.1-3.7,13.3-6c0,1.9,0.6,3.8,1.6,5.5c1.1,1.6,3.4,2.5,5,1.5c-4.1,1.9-8,4.3-11.5,7.1
	c-1.4,1.2-2.6,2.4-4.1,3.5c-5.3,3.8-12.6,4.2-17.4,8.5c-1.5,1.3-3.7,1.6-5.4,0.6c-1.7-1-2.8-2.7-4.2-4.1c-2.7-2.7-6.5-4.3-9.2-7.1
	c-1.2-1.3-2.2-2.8-3.5-4.1c-1.8-1.8-4.2-3-5.9-5c-1.2-1.5-2-3.3-3.2-4.8c-1-1.4-2.2-2.6-3.1-4c-2.2-3.5-2.2-8-0.9-11.9
	S633.1-86.9,635.4-90.3z"/>
<path class="st5" d="M457.7,2c-0.8-1-1.7-1.9-2.8-2.6c-1.7-0.7-3.5-0.9-5.3-0.5c-4.5,0.7-8.6,2.7-12.5,5c-3.2,1.8-6.3,3.8-8.6,6.7
	c-0.7,0.9-1.3,1.9-1.5,3c-0.1,0.9,0,1.8,0.2,2.7c0.4,2,1.7,3.7,3.6,4.6c2.1,0.8,4.4-0.1,6.5-0.9c2.8-1.1,5.9-2.1,8.8-1.2
	c2.2,0.6,4,2.3,6.3,2.3c2.7,0.1,4.8-2.1,6.5-4.1c1.5-1.8,4.7-5.1,4.5-7.6S459.3,3.8,457.7,2z"/>
<path class="st5" d="M491.4,79.8c-2.4,0.7-5,0.8-7.5,0.3c-1.5-0.3-3.4-0.6-4.3,0.5c-0.3,0.4-0.5,0.9-0.6,1.5
	c-2.5,10.2-0.2,21,4,30.6c0.1,0.2,0.2,0.3,0.3,0.4c0.3,0.2,0.6,0.1,1-0.1c1-0.4,2-1,2.8-1.6c1.9-1.7,2.3-4.6,2.4-7.2s0-5.3,1.4-7.5
	c1.7-2.8,5.2-4.1,6.6-7c1.1-2.4,0.5-5.2-0.5-7.6c-0.3-0.8-0.5-3-1.2-3.4S492.3,79.6,491.4,79.8z"/>
<path class="st6" d="M457.4,1c0.5-0.3,0.6-0.8,0.4-1.3c-0.2-0.5-0.5-0.9-0.9-1.2c-0.9-0.8-1.7-1.8-2.4-2.7c-0.8-1.2-1.7-2.4-2.6-3.4
	c-1-1.1-2.4-1.7-3.9-1.6c-0.8,0.1-1.6,0.5-2.2,0.9c-2.7,1.6-5.2,3.5-7.5,5.7C438.1-2.4,438-2.2,438-2s0.2,0.3,0.2,0.5
	c0,0.2-0.1,0.4-0.2,0.5c-1.3,1.7-2.9,3.1-4.7,4.3c-2.5,1.9-5,3.9-7.4,5.9c-1.5,1.1-2.7,2.5-3.5,4.2c-0.5,2-0.3,4.1,0.6,5.9
	c1.7,3.9,4.6,7.2,7.5,10.3c0.5,0.6,1.2,1.1,1.9,1.4c0.6,0.1,1.2-0.1,1.7-0.4c1.8-1.1,2-3.6,2.2-5.6l0.2-2.9c0-0.2,0-0.4,0.1-0.6
	c0.2-0.2,0.4-0.4,0.6-0.5l2.7-1.4c-1.7-2.8-4.8-4.4-8-4.2c-0.7,0.2-1.5,0.1-2.1-0.3c-0.7-0.7-0.7-1.8,0-2.4c0.7-0.6,1.5-1.1,2.4-1.3
	c7.2-2.6,13.7-6.9,20.6-10c0.8-0.4,1.6-0.6,2.5-0.6C455.9,0.9,456.8,1.3,457.4,1z"/>
<path class="st6" d="M485.7,105.7c-0.3,0.6-0.4,1.3-0.8,1.9s-1.1,1-1.7,0.7c-0.3-0.2-0.5-0.5-0.7-0.9c-3-6.9-3.9-14.6-2.5-22.1
	c0.2-1.2,0.6-2.4,1.1-3.5c0.5-1.1,1.3-2.2,1.1-3.4c-2.9,0.9-5.6,2.1-8.2,3.6c-1.7,1-3.5,2.4-3.7,4.4c0,0.8,0.1,1.5,0.3,2.2l0.9,3.5
	c0.1,0.7,0.4,1.3,0.8,1.8c0.3,0.3,0.7,0.5,1,0.8c0.3,0.4,0.5,0.8,0.5,1.3l0.8,3.1c0.3,1,0.5,2.1,0.6,3.1c0.1,1,0,1.9,0.1,2.9
	c0.1,1.6,0.3,3.1,0.7,4.7l1.1,5.5c0.3,1.5,0.7,3.1,1.3,4.5c0.5,1,1.1,1.9,1.5,2.9c0.3,0.8,0.4,1.6,0.8,2.3c0.6,1.2,1.7,2.1,2.9,2.7
	c0.4,0.3,0.9,0.4,1.4,0.5c1.4,0,2.4-1.3,3.1-2.6c1.3-2.3,2-4.9,2-7.5c0-1.1-0.2-2.1-0.3-3.2c-0.2-3,0.6-5.9,0.6-8.9
	C490.7,103.3,486.7,103.8,485.7,105.7z"/>
<path class="st5" d="M632.4-68.5c-3.1-1.4-5.9-3.6-8-6.2c-1.1-1.4-2.1-2.9-3-4.4c-3.8-6.4-7.1-13.1-9.8-20.1
	c4.3,0.9,8.7,1.7,12.9,0.5c2.2-0.7,4.2-1.7,6-3.2c2.3-1.9,4.4-3.9,6.3-6.2c1.5,2.8,3.1,5.5,5,8c1.1,1.4,4.7,4.4,4.4,6.3
	s-4.3,2.9-5.9,3.9l-0.2,0.1c-2.4,1.5-4.5,3.5-6.2,5.7C630.9-79.7,629.9-73.5,632.4-68.5z"/>
<path class="st2" d="M640.5-90c-4.9-2.4-8.5-6.8-9.8-12c2.3-1.9,4.4-3.9,6.3-6.2c1.5,2.8,3.1,5.5,5,8c1.1,1.4,4.7,4.4,4.4,6.3
	S642.1-90.9,640.5-90z"/>
<circle class="st5" cx="649.5" cy="-107.3" r="18.7"/>
<path class="st7" d="M608.5,9.4c-2.6,1.6-5.9,1.7-8.6,0.2c-1.4-0.9-2.6-1.9-3.7-3.1c-6.2-6.3-12-13-16.1-20.8
	c-1-1.7-1.6-3.5-1.8-5.4c-0.2-1.9,0.5-3.8,1.9-5.1c0.4-0.3,0.7-0.6,1-0.9c0.2-0.5,0.4-1.1,0.3-1.7c0.2-2,1.6-3.8,3.5-4.4
	c-1-0.7-0.6-2.2,0-3.2s1.6-2,1.4-3.1c-0.3-0.7-0.6-1.5-0.9-2.2c-0.4-1.2,0.3-2.5,0.6-3.7c0.7-2.5,0.3-5.2,0.1-7.8
	c-0.5-7.7,1.3-15.3,3.2-22.8c0.8-3.8,2-7.5,3.5-11.1c0.5-1,1-2,1.5-2.9c1.9-3.1,4-6,6.3-8.8c1.1-1.6,2.6-2.9,4.3-3.8
	c0.2-0.1,0.3-0.1,0.5-0.2c1.2-0.3,2.5-0.4,3.8-0.3c3.4,0.2,6.9,1,9.3,3.4s3.2,5.7,4.3,8.9c0.3,1.1,0.8,2.1,1.3,3.2
	c1.6,3.2,4.2,5.7,6.7,8.1l2.8,2.7c1.4,1.3,3.8,1,5.1,2.4c0.5,0.7,0.9,1.4,1.2,2.2c1.5,3.6,2.3,7.4,2.5,11.3c0,0.9,0,1.7-0.2,2.6
	c-0.3,3-1.7,5.8-3.8,8c-2.4,2.3-5.7,3.4-8.1,5.8c-2,1.9-3.2,4.5-4.3,7c-2.2,4.8-4.4,9.7-6.6,14.5c-1.6,3.3-3,6.7-4.1,10.2
	C613.5-4.3,614.7,5.5,608.5,9.4z"/>
<path class="st8" d="M550.8,91.8c-4.9,0.2-9.9,0.1-14.8,0.6c-2.9,0.3-5.7,0.8-8.6,0.9c-3.1,0.1-6.3-0.1-9.4,0
	c-7.9,0.2-15.8,2.3-23.4,4.5c-2.2-5.3-3.3-10.9-3.3-16.6c0-0.4,0-0.8,0-1.1c0.1-1.6,0.6-3.2,1.4-4.6c7-2,14.1-4,21.4-3.9
	c2.4,0,4.7,0.3,7.1,0.4c6.8,0.2,13.5-2.9,20.3-2c1.4,0.1,2.7-0.6,3.2-1.9c0.3-0.7,0.4-1.7,1.2-2c0.5-0.2,1.3,0,1.6-0.4
	c0.1-0.2,0.2-0.5,0.2-0.8c0.2-1,1.2-1.5,2-2c2-1.4,3.1-3.7,4.1-6c0.3-0.5,0.4-1,0.5-1.6c0-0.4-0.1-0.9-0.1-1.3
	c0-1.6,1.8-2.5,2.7-3.8c1.2-1.7,1-4,1.6-6c0.8-2.5,2.9-4.3,3.5-6.8c0.1-0.3,0.1-0.5,0.1-0.8c-2.1,2.2-4.5,4.1-7.2,5.5
	c-8.9,5.5-19.5,8.7-27.8,15.1c-6.6,5-16.2,4.9-23.4,0.8c-2.7-1.7-5.3-3.6-7.7-5.7c-3.7-3-7.4-6.1-11.2-8.9c-2.7-2-5.4-3.9-8.3-5.8
	c-3.5-2.3-7-4.4-10.7-6.3c-4.6-2.3-9.2-4.6-14.3-5.2c-1.3-2.7-1.4-5.9-0.3-8.6c1.2-2.7,2.7-5.3,4.7-7.5c1.4-2.1,3.3-4,5.4-5.5
	c0.5-0.3,1.1-0.3,1.6,0l19.8,12.2l3.7,2.3c8.1,5,16.1,10.4,24.3,15.3c0.2,0.6,0.9,0.6,1.5,0.5s1.2-0.4,1.7-0.1
	c0.2,0.2,0.4,0.5,0.7,0.5c0.2,0,0.5-0.1,0.7-0.2c3.4-2.3,5.1-6.8,8.8-8.3c1.6-0.7,3.5-0.8,4.8-2c0.7-0.9,1.4-1.9,2-3
	c1.6-2.1,4.7-2.8,6.2-5c1-1.4,2.2-2.7,3.6-3.8c2.7-2.2,5.1-4.8,7-7.8c1-1.5,1.8-3,2.3-4.7c0.3-0.9,0.4-1.8,0.7-2.6
	c0.9-2.6,3-4.6,5.1-6.4c3.8-3.3,7.9-6.5,12.7-8c1.7-0.4,3.3-1,4.8-1.8c1.9-1.2,3.7-3.4,5.9-2.9c0.8,0.3,1.6,0.7,2.2,1.4
	c2.7,2.6,5.2,5.5,7.5,8.5c3.6,4.5,7.1,9.1,10.7,13.6c1.1,1.6,2.5,3,4.2,4.1c2.4,1.2,5.1,1.6,7.8,1c-0.3,3.7-3.3,6.8-4.5,10.3
	c-0.6,1.7-0.8,3.5-1.3,5.3c-0.6,2.2-1.4,4.3-2.4,6.4c-2.4,5.6-4.8,11.2-8.3,16.2c-1.8,2.6-3.8,5-5.8,7.4c-7.9,9.6-14,21.1-23,29.7
	c-2.2,2.1-3.6,5-6,6.8C557.4,91.4,554,91.7,550.8,91.8z"/>
<path class="st2" d="M588.4-35.1c-0.9,0-1.7,0.3-2.5,0.8c1.8-0.6,4.1,1.1,5.8,0.3c0.8-0.4,0.7-0.5,0-0.7
	C590.7-35.1,589.5-34.8,588.4-35.1z"/>
<rect x="830.7" y="308" transform="matrix(0.9423 -0.3346 0.3346 0.9423 -55.2764 309.2002)" class="st1" width="78" height="14"/>
<path class="st1" d="M855.2,348.8l66.9-23.8c3.6-1.3,7.6,0.6,8.9,4.3l0,0c1.3,3.6-0.6,7.6-4.3,8.9L859.9,362l0,0L855.2,348.8
	L855.2,348.8z"/>
<path class="st3" d="M791.5,307.8l16.3-5.8c30.2-10.7,63.3,5.1,74.1,35.2l5.8,16.3c4.2,11.8-2,24.8-13.8,29l-49.6,17.6
	c-11.8,4.2-24.8-2-29-13.8l-17.6-49.6C773.5,325,779.7,312,791.5,307.8z"/>
<path class="st2" d="M587.5-25.3c-0.7-0.2-1.4-0.3-2.1-0.1c-1,0.1-2,0.6-2.8,1.4c0.4,0.2,0.8,0.2,1.2,0c0.7-0.2,1.3-0.2,2-0.2
	c0.6,0,2.3,0.6,2.8,0.4C589.3-24.4,588-25.2,587.5-25.3z"/>
<path class="st2" d="M642.5-56.9c-1.5-0.5-2.9-1.2-4.3-2.1c-3.5-2.2-6.5-5.3-9.9-7.5c-1.8-1.1-3.6-2.1-5.4-3l-11.7-6
	c-0.9-0.5-1.8-0.9-2.8-1.2c-1.9-0.4-4.1,0.9-6,0.6c-2-0.4-3.8-1.6-4.9-3.4c-1.1-1.7-1.8-3.7-2.2-5.7c-0.3-1.2-0.5-2.4-0.7-3.6
	c-0.2-1.3-0.2-2.5-0.1-3.8c0.2-2.5,1.4-4.8,3.3-6.5c1.4-1,3-1.7,4.6-2c1.1-0.3,2.1-0.4,3.2-0.5c0.6,0,1.2,0,1.8,0
	c4.4,0.3,8.2,3.3,11.1,6.7c1.5,1.7,3,3.6,4.5,5.4c0.3,1.1,0.8,2.1,1.3,3.2c1.6,3.2,4.2,5.7,6.7,8.1l2.8,2.7c1.4,1.3,3.8,1,5.1,2.4
	c0.5,0.7,0.9,1.4,1.2,2.2c1.5,3.6,2.3,7.5,2.5,11.4C642.7-58.6,642.6-57.7,642.5-56.9z"/>
<path class="st2" d="M551.5,71.1L491.2,80c0.1-1.6,0.6-3.2,1.4-4.6c7-2,14.1-4,21.4-3.9c2.4,0,4.7,0.3,7.1,0.4
	c6.8,0.2,13.5-2.9,20.3-2c1.4,0.1,2.7-0.6,3.2-1.9c0.3-0.7,0.4-1.7,1.2-2c0.5-0.2,1.3,0,1.6-0.4c0.1-0.2,0.2-0.5,0.2-0.8
	c0.2-1,1.2-1.5,2-2c2-1.4,3.1-3.7,4.1-6c0.3-0.5,0.4-1,0.5-1.6c0-0.4-0.1-0.9-0.1-1.3c0-1.6,1.8-2.5,2.7-3.8c1.2-1.7,1-4,1.6-6
	c0.8-2.5,2.9-4.3,3.5-6.8l0.3-0.3l10.3-4L551.5,71.1z"/>
<ellipse class="st9" cx="320.4" cy="523.9" rx="425" ry="33"/>
<ellipse class="st9" cx="696.1" cy="608.1" rx="275" ry="35.8"/>
<path class="st10" d="M370.7,497.1l0.3-14.2c13.3-0.8,26.7-1.3,40-1.5c7.7-0.1,15.6-0.2,23.1,1.8c5.2,1.3,10.1,3.6,15.2,5.2
	c10.2,3.2,21,3.6,31.7,3.9c10.4,0.3,21.2,0.4,30.6-4.2c16.2-8,22.9-27.7,23.7-45.6s-2.8-36.1-0.3-54"/>
<polygon class="st1" points="407.2,524.9 229,522.6 229.5,518 238.2,442.6 394.6,442.6 406.2,518 407,523.7 "/>
<polygon class="st2" points="407,523.7 318.1,523.7 229,522.6 229.5,518 406.2,518 "/>
<rect x="199.3" y="519.2" class="st1" width="236.4" height="5.7"/>
<path class="st3" d="M661.4-10.2c0.1-8.2-6.5-14.9-14.7-15c0,0,0,0-0.1,0H-13.8c-8.2,0-14.8,6.7-14.8,15c0,0,0,0,0,0v400.3h689.9
	V-10.2z"/>
<path class="st1" d="M-28.6,386.1V433c0,8.2,6.6,14.8,14.8,14.8h660.3c8.2,0,14.8-6.6,14.8-14.8v-46.9H-28.6z"/>
<rect class="st11" width="636.2" height="359.8"/>
<path class="st12" d="M319.8,430c4.7,0,9.2-2.2,12.1-5.9l0,0c0.4-0.6,0.8-1.2,1.2-1.8l-8.5-1.4l9.1,0.1c1.8-3.9,1.9-8.3,0.3-12.2
	l-12.3,6.4l11.3-8.3c-4.2-7.4-13.6-10.1-21-5.9s-10.1,13.6-5.9,21c0.4,0.8,0.9,1.5,1.5,2.2l0,0C310.7,427.8,315.1,430,319.8,430z"/>
<polygon class="st2" points="335.2,447.8 406.3,519.2 395.4,447.8 "/>
<path class="st10" d="M654.5-22.7l38.2-50.6c2.3-3,4.6-6.1,7.8-8.3c9-6.2,22.2-2.5,29.7,5.4s10.7,19.1,13,29.8
	c5.4,24.7,7.8,49.9,7.2,75.2c-0.3,13.3-1.5,26.7-5.7,39.3c-6.4,19.2-19.4,35.3-29.3,53c-15.8,28.5-22.5,66.4-2.4,92.1
	c6.5,8.4,15.4,14.8,21.5,23.5c6.8,9.9,9.5,21.9,12,33.7c3.8,17.7,7.6,35.5,8.3,53.6c2.3,58.5-31.1,116.9-82.6,144.8
	c-35.8,19.3-79,24.9-110.1,51.1c-11,9.2-20.5,22.8-17.8,36.9c2.2,11.4,12.2,20.1,23.2,23.8s22.9,3.5,34.5,2.8
	c27.9-1.6,55.6-5,83-10.2c23.2-4.4,46.4-8.3,66.7-20.5c2-1.1,3.8-2.6,5-4.5c1.3-2.2,1.5-4.8,1.7-7.4c0.5-7.5,1.1-15.3-1.6-22.3
	c-3.1-8.2-10.1-14.5-13.5-22.6s-2.8-17.5-0.6-26c2.7-10.5,7.6-20.4,12.5-30c4.8-9.4,9.7-18.8,15.3-27.8c15.9-25.2,37.7-46,59.3-66.5
	"/>
<path class="st5" d="M703.8-75.5c1.7-0.7,3.5-1.1,5.3-1.2c1.2,0.1,2.3,0.4,3.4,0.8c2,0.6,3.8,1.5,5.4,2.8c1.6,1.3,2.5,3.3,2.4,5.4
	c-0.2,2-1.7,3.7-3.3,5c-2.2,1.8-4.9,2.9-7.8,3c-3.2,0-6.2-1.4-9.2-2.2c-2.2-0.6-4.5-1-6.9-1c-1.2,0.1-2.3,0-3.5-0.2
	c-1.2-0.2-2.2-1-2.7-2.1c-0.3-1-0.3-2,0-2.9c0.2-1.2,0.2-4.2,1.3-4.9c0.9-0.6,4-0.1,5.1-0.2C696.9-73.6,700.4-74.4,703.8-75.5z"/>
<path class="st7" d="M689.9-74.5c-4.1,1.9-9,0.3-13.5,0.3c-2.2,0-4.4,0.4-6.6,0.5c-2.4,0.1-4.9,0-7.3-0.2l-7.3-0.5
	c-4.3-0.1-8.6-0.7-12.8-1.8c-3.6-4.2-9.4-6.1-13.7-9.5c-3.5-2.8-5.9-6.5-8.9-9.8s-6.7-6.3-11.1-6.7c-1.7-0.1-3.4,0.1-5.1,0.5
	c-1.7,0.3-3.2,1-4.6,2c-1.9,1.6-3.1,4-3.3,6.5c-0.2,2.5,0.1,5,0.7,7.4c0.4,2,1.1,3.9,2.2,5.7c1.1,1.8,2.9,3,4.9,3.4
	c1.9,0.3,4.1-1,6-0.6c1,0.3,1.9,0.7,2.8,1.2l11.7,6c1.9,0.9,3.7,1.9,5.4,3c3.5,2.3,6.4,5.3,9.9,7.5s7.9,3.6,11.8,2.2
	c12-4.5,25.5-2.4,38.2-1.3c-0.1-0.2,0.4-0.5,0.6-0.7c1.6-2.2,2.3-4.8,2-7.5C691.8-69.5,690.8-71.9,689.9-74.5z"/>
<path class="st11" d="M669.8-108.1c1.2-0.6,2.3-1.5,3-2.7c1.1-2.1,0.4-4.7-0.3-7s-1.6-4.3-2.4-6.4c-0.6-1.8-1.6-3.4-2.8-4.9
	c-1.8-1.9-4.3-2.8-6.4-4.3c-2.5-1.8-4.4-4.3-6.5-6.5c-2.1-2.2-4.7-4.3-7.7-4.6c-2.3-0.1-4.7,0.3-6.8,1.3
	c-18.3,6.7-33.2,20-49.5,30.5c-6.4,4.1-13.5,7.9-21,7.4l6.7,10.7c1.7,2.7,3.6,5.6,6.6,6.8c2.7,1,5.6,0.5,8.4,0
	c2.2-0.3,4.4-1,6.4-1.9c4-2.2,6.6-6.7,10.9-8.2c3.2-1.2,6.8-0.4,10,0.7s6.4,2.6,9.7,3.1c6,0.8,12-1.9,17-5.4c3-2.1,5.7-4.5,9-6
	c2.5-1.3,5.3-1.8,8-1.4C665-106.7,666.8-106.6,669.8-108.1z"/>
<path class="st2" d="M672.8-110.8c1.1-2.1,0.5-4.6-0.3-6.8c0.2,1.3,0.1,2.6-0.5,3.8c-0.7,1.2-1.8,2.1-3,2.7c-3,1.6-4.8,1.4-7.9,0.9
	c-2.7-0.4-5.5,0.1-8,1.4c-3.2,1.6-6,4-9,6c-5,3.5-11,6.2-17,5.4c-3.4-0.4-6.5-2-9.7-3.1s-6.8-1.8-10-0.7c-4.3,1.6-6.8,6.1-10.9,8.2
	c-2,1-4.2,1.6-6.4,1.9c-2.8,0.5-5.8,1.1-8.4,0c-3-1.2-4.9-4.1-6.6-6.8l-4.8-7.6c-0.4,0-0.8,0-1.2,0l6.7,10.7
	c1.7,2.7,3.6,5.6,6.6,6.8c2.7,1,5.6,0.5,8.4,0c2.2-0.3,4.4-1,6.4-1.9c4-2.2,6.6-6.7,10.9-8.2c3.2-1.2,6.8-0.4,10,0.7
	s6.4,2.6,9.7,3.1c6,0.8,12-1.9,17-5.4c3-2.1,5.7-4.5,9-6c2.5-1.3,5.3-1.8,8-1.4c3.1,0.5,4.9,0.6,7.9-0.9
	C671-108.7,672.1-109.6,672.8-110.8z"/>
<linearGradient id="SVGID_2_" gradientUnits="userSpaceOnUse" x1="429.528" y1="-158.5347" x2="429.528" y2="169.8553" gradientTransform="matrix(-1 -4.000000e-02 4.000000e-02 -1 1231.792 453.736)">
	<stop  offset="0" style="stop-color:#808080;stop-opacity:0.25"/>
	<stop  offset="0.54" style="stop-color:#808080;stop-opacity:0.12"/>
	<stop  offset="1" style="stop-color:#808080;stop-opacity:0.1"/>
</linearGradient>
<path class="st13" d="M724.5,573.2c0.6-0.9,1.3-1.7,2.2-2.4c4.4-4.1,6.4-10.2,7.5-16.1s1.4-12,3.1-17.8c0.9-3,2.1-5.9,3.5-8.7
	c1-2.1,2.2-6.3,4.1-7.8c0.4-0.3,0.8-0.5,1.3-0.6c0.9-1.8,2.1-3.5,3.6-4.8c2.9-2.6,6.3-4.7,8.3-8c0.5-1.2,1.2-2.3,1.9-3.3
	c1.3-1.4,3.3-2,4.5-3.5c1.5-1.9,1.2-4.7,1-7.2s0-5.4,2.1-6.7c1.3-0.8,2.9-0.7,4.3-1.4c2-1,2.8-3.5,2.8-5.8s-0.7-4.4-0.9-6.7
	c-0.6-7.2,4.2-14.3,2.3-21.2c-0.7-2.6-2.3-4.9-3.4-7.4c-0.4-0.8-0.7-1.7-1-2.5c-3.1,1.2-6.4,2-9.7,2.3c5.5-12.4,4.1-26.7,6.7-40
	l-0.3-0.5c-2.6-3.4-4.1-7.6-4.2-11.8c0-5,2.3-9.6,3.3-14.4c0.9-4.1,0.8-8.4,2-12.5c0.8-2.5,1.9-4.9,3.2-7.2c1.2-2.3,2.6-4.6,3.9-6.8
	c1.3-4.2,2.6-8.5,3.8-12.7c1.8-6,3.7-12,7.2-17.1c1.3-1.9,1.7-5.7,3.6-6.8c1.6-0.8,3.4-1.2,5.2-0.9c2.8-1.6,5.2-3.8,5.6-6.9
	c0-0.7,0-1.3-0.2-2h-0.3c-4.4-0.4-6.6-4.3-8.9-7.7c-3.7-5.5-2.3-13,0-19.2c0.6-2,1.6-3.8,3-5.3c3.2-3,8.3-2.3,12.4-3.8
	c1.3-0.6,2.7-1.1,4.1-1.5c2.8-0.6,5.6,0.3,8.2,1.5s4.9,2.9,7.5,3.9s5.9,1.8,6.5,4.5c0.2,0.9,0.1,1.9-0.2,2.7
	c-0.6,1.7-1.7,3.3-3.1,4.5c4.3,8.9,0.6,19.5-8.3,23.8c-0.8,0.4-1.7,0.7-2.6,1c-0.8,1.2-1.5,2.5-2.1,3.7c-1.2,2.2-2.1,4.9-1.8,7.3
	c0.7,0.8,1.4,1.6,2,2.4c2.9,4,4.5,8.7,6,13.4c2,6,3.6,12.1,4.8,18.3c2.4,5.2,5.4,10.1,7.2,15.6c3.2,0,6.3-0.4,9.4-1.2l8.4-1.9
	c2.9-0.7,6-1.4,8.3-3.3c1.2-1,2.2-2.3,3.4-3.3s3.7-2.2,5.1-1.3c0.2,0.2,0.5,0.3,0.7,0.5c1.2-2.5,9.1,7.7,3.7,8.7l0.3,1
	c0.7,2.1,2.2,4.6,1.8,6.8l-37.6,12.9c-2.4,1-5,1.5-7.6,1.7c-1,0-2-0.1-3-0.4v1.9v0.1c-0.1,13.2,2,26.3,2.4,39.5c0.1,2.4,0,5-1.5,6.9
	c-1.7,2.1-4.7,2.5-7.3,2c-0.6-0.1-1.2-0.2-1.9-0.4c-0.9,3.3-1.5,6.7-1.9,10.1l-2.5,17.8c-0.3,1.8-0.5,3.7-0.4,5.5
	c0.3,4.2,2.5,7.9,4.1,11.8s2.5,8.5,0.4,12.1c-0.7,1.1-1.6,2.1-2.2,3.2c-0.7,1.8-1.1,3.7-1,5.7c-0.2,5.4-0.3,10.8-0.4,16.2
	c0.4-0.1,0.9,0,1.3,0.3c2.1,1.6,1.8,9.3,2,11.7c0.2,4,0,8.1,0.2,12.1c0.3,5.5,1.2,10.9,2.7,16.1c0.4,1.7,1.1,3.3,2.3,4.6
	c1.2,1,2.6,1.7,4.1,2.1c5,1.6,10.2,2.3,15.4,2.1c2.1-0.1,4.3-0.3,6.3,0.5s3.5,3,2.8,5c-0.6,1.7-2.5,2.5-4.1,3.1
	c-3.8,1.3-7.5,3-11,5.1c-1.4,0.9-2.8,1.7-4.3,2.4c-1.4,0.5-2.9,0.9-4.4,1.1l-17.7,3c-3.6,0.6-8,1-10.3-2c-1.2-1.6-1.4-3.8-1.4-5.9
	c0.1-4,0.9-8.1,0.4-12.1c-0.4-2.4-1-4.7-1.8-6.9l-5.3-15.7c-1.8-5.3-3.6-10.6-4.3-16.1c-0.2-2-0.2-4.3,1.3-5.5
	c0.4-0.3,0.8-0.5,1.3-0.7c0.1-4.8,0.7-9.7,0.4-14.5c-0.1-1.2-0.2-2.4-0.3-3.6c-0.9,0.9-1.8,1.9-2.5,2.9c-1.7,2.7-2.3,6.2-4.9,8
	c-2.2,1.5-5.5,1.4-7.1,3.6c-0.5,0.8-0.9,1.8-1.1,2.7c-0.9,2.4-2.3,4.5-4,6.3c-0.6,2.2-1.4,4.3-2.5,6.3c-1.5,3.1-2.9,6.2-4.4,9.3
	c-1.6,3.3-3.2,6.6-5,9.8c-1.4,2-2.5,4.2-3.3,6.5c-1.4,4.9,0.9,10.4,4.5,14s8.4,5.7,13.2,7.7c0.5,0.2,1,0.4,1.3,0.8
	c0.4,0.5,0.6,1.1,0.6,1.7c0,2.3-1.9,4.3-4.1,5c-2.2,0.6-4.6,0.7-6.8,0.2c-12.8-1.5-25.5-4.7-36.8-10.9c-1.7-0.8-3.2-2-4.4-3.4
	C724.1,576.9,723.8,574.9,724.5,573.2z"/>
<path class="st6" d="M778.5,349c-2.1,3.3-4.1,6.6-6,10.1c-1.3,2.3-2.4,4.7-3.2,7.2c-1.2,4-1.1,8.3-2,12.4c-1,4.8-3.3,9.4-3.3,14.3
	c0.1,4.3,1.6,8.4,4.2,11.8c2.6,3.4,5.5,6.4,8.8,9.1c7.6-19.6,11.8-40.3,12.5-61.2c0.1-2.9,0.1-5.9-0.9-8.6c-0.7-1.7-3.8-6.4-5.8-4.5
	c-0.7,0.7-0.9,3.7-1.4,4.7C780.6,345.8,779.6,347.4,778.5,349z"/>
<path class="st7" d="M778.5,349c-2.1,3.3-4.1,6.6-6,10.1c-1.3,2.3-2.4,4.7-3.2,7.2c-1.2,4-1.1,8.3-2,12.4c-1,4.8-3.3,9.4-3.3,14.3
	c0.1,4.3,1.6,8.4,4.2,11.8c2.6,3.4,5.5,6.4,8.8,9.1c7.6-19.6,11.8-40.3,12.5-61.2c0.1-2.9,0.1-5.9-0.9-8.6c-0.7-1.7-3.8-6.4-5.8-4.5
	c-0.7,0.7-0.9,3.7-1.4,4.7C780.6,345.8,779.6,347.4,778.5,349z"/>
<path class="st5" d="M885.8,359.9c3.9-0.7,8.2-0.3,11.3,2.2c1.8,1.6,3,3.8,3.2,6.2c0.3,2.8-1.3,6.1-4.1,6.3c-0.7,0-1.3,0-2-0.1
	c-1.8,0-3.5,0.1-5.2,0.4c-6.9,0.6-13.7-2.1-18.2-7.4c-2.4-2.9,0.8-4.3,3.6-4.9C878.2,361.8,882,360.5,885.8,359.9z"/>
<path class="st3" d="M819,450.2l-2.5,17.6c-0.3,1.8-0.4,3.7-0.4,5.5c0.3,4.2,2.5,7.9,4.1,11.7s2.6,8.4,0.5,12
	c-0.7,1.1-1.6,2.1-2.2,3.2c-0.7,1.8-1.1,3.7-1,5.6l-0.7,25c-7.7,0.5-15.5,0.5-23.2-0.1c-0.3,0-0.6-0.1-0.9-0.2
	c-0.2-0.3-0.3-0.6-0.3-0.9c-0.3-5.8,0.7-11.7,0.3-17.6c-0.1-2.1-0.4-4.3-0.5-6.4c-0.1-8.7,4.2-17.2,2.9-25.9
	c-0.4-2.2-0.9-4.3-1.6-6.4c-4.1-15-3.2-30.8-2.3-46.2c0-0.2,0.1-0.5,0.2-0.7c0.2-0.1,0.3-0.2,0.5-0.3c8.9-2.7,18.5-0.8,25.8,4.9
	c1.1,0.9,3.8,1.7,4.6,2.8c1,1.5-0.3,2.9-0.9,4.5C820.2,442.2,819.4,446.2,819,450.2z"/>
<path class="st2" d="M819,450.2l-2.5,17.6c-0.3,1.8-0.4,3.7-0.4,5.5c0.3,4.2,2.5,7.9,4.1,11.7s2.6,8.4,0.5,12
	c-0.7,1.1-1.6,2.1-2.2,3.2c-0.7,1.8-1.1,3.7-1,5.6l-0.7,25c-7.7,0.5-15.5,0.5-23.2-0.1c-0.3,0-0.6-0.1-0.9-0.2
	c-0.2-0.3-0.3-0.6-0.3-0.9c-0.3-5.8,0.7-11.7,0.3-17.6c-0.1-2.1-0.4-4.3-0.5-6.4c-0.1-8.7,4.2-17.2,2.9-25.9
	c-0.4-2.2-0.9-4.3-1.6-6.4c-4.1-15-3.2-30.8-2.3-46.2c0-0.2,0.1-0.5,0.2-0.7c0.2-0.1,0.3-0.2,0.5-0.3c8.9-2.7,18.5-0.8,25.8,4.9
	c1.1,0.9,3.8,1.7,4.6,2.8c1,1.5-0.3,2.9-0.9,4.5C820.2,442.2,819.4,446.2,819,450.2z"/>
<path class="st3" d="M772.6,444.9c1.2,2.4,2.7,4.7,3.4,7.3c1.8,6.9-2.9,14-2.3,21.1c0.2,2.2,0.9,4.4,0.9,6.6s-0.8,4.7-2.8,5.7
	c-1.3,0.7-3,0.6-4.2,1.4c-2.1,1.3-2.3,4.2-2.1,6.7s0.5,5.2-1,7.1c-1.2,1.5-3.2,2.1-4.5,3.5c-0.8,1-1.4,2.1-1.9,3.3
	c-1.9,3.3-5.4,5.4-8.2,8s-5.3,6.5-4,10.1c0.9,2.7,3.6,4.3,6.1,5.6c4.6,2.3,9.5,4,14.6,5.2c0.5,0.2,1.1,0.2,1.7,0.1
	c0.6-0.2,1.1-0.6,1.5-1c3-2.9,6-5.9,7.4-9.8c0.2-0.9,0.6-1.9,1.1-2.7c1.6-2.2,4.8-2.1,7.1-3.6c2.6-1.8,3.2-5.3,4.9-7.9
	c1.6-2.5,4.2-4.2,6-6.6c3-3.9,3.8-9,6-13.5c0.9-1.9,2.1-3.6,2.9-5.6c0.7-2.3,1.2-4.8,1.4-7.2c1.4-11.7,5-23.4,2.7-35
	c-0.5-2.5-1.3-5-1.6-7.6c-0.6-4.5,0.3-9.2-0.3-13.7c0-1.1-0.6-2.2-1.5-2.9c-0.5-0.2-1.1-0.4-1.7-0.4c-5.9-0.3-11.9-0.2-17.8,0.4
	c-3,0.3-6.4,0.9-8.2,3.3c-1.5,2.1-1.5,4.9-2,7.5c-0.6,3.1-2.2,4.8-3.9,7.3S771.4,442.4,772.6,444.9z"/>
<path class="st11" d="M795.7,526.1c-1.6,0-3.3-0.1-4.5,0.9c-1.5,1.2-1.5,3.5-1.3,5.5c0.7,5.5,2.5,10.7,4.3,16l5.3,15.6
	c0.8,2.2,1.5,4.5,1.8,6.9c0.5,4-0.3,8-0.4,12c0,2,0.1,4.2,1.4,5.8c2.3,2.9,6.7,2.6,10.3,1.9l17.7-3c1.5-0.2,3-0.6,4.4-1.1
	c1.5-0.7,2.9-1.5,4.2-2.4c3.5-2,7.2-3.7,11-5c1.7-0.6,3.5-1.4,4.1-3.1c0.7-2-0.9-4.2-2.8-5s-4.2-0.6-6.3-0.5
	c-5.2,0.2-10.4-0.5-15.4-2.1c-1.5-0.4-2.9-1.1-4.1-2.1c-1.1-1.3-1.9-2.9-2.3-4.6c-1.5-5.2-2.4-10.6-2.7-16c-0.2-4-0.1-8-0.2-12
	c-0.1-2.4,0.1-10-2-11.6c-1.6-1.2-8.1,2.2-10.3,2.6C803.9,525.9,799.8,526.3,795.7,526.1z"/>
<path class="st11" d="M737.3,537.3c-1.7,5.7-2,11.8-3.1,17.7s-3.1,11.9-7.5,16c-0.9,0.7-1.6,1.5-2.2,2.4c-0.8,1.7-0.5,3.8,0.8,5.2
	c1.2,1.4,2.7,2.6,4.4,3.4c11.3,6.2,24,9.3,36.8,10.8c2.3,0.4,4.6,0.4,6.8-0.2c2.2-0.7,4.1-2.7,4.1-5c0-0.6-0.2-1.2-0.6-1.7
	c-0.4-0.4-0.8-0.6-1.3-0.8c-4.7-1.9-9.5-4.1-13.2-7.6s-5.9-9-4.5-13.9c0.8-2.3,1.9-4.4,3.3-6.4c1.8-3.1,3.5-6.4,5-9.7l4.4-9.2
	c1.3-2.7,2.6-5.5,2.8-8.5c-5.5,0.3-11-0.6-16.2-2.6c-2.4-1-4.7-2.3-6.7-4c-1.7-1.4-3.2-4.1-5.5-2.2c-1.8,1.5-3,5.6-4.1,7.8
	C739.4,531.4,738.2,534.3,737.3,537.3z"/>
<path class="st5" d="M801.8,308.1c-0.4,3.8-4.2,6.4-7.7,7.9l22.5,7.2c-1.5-2.8-0.3-6.2,1.2-9c1.2-2.2,2.5-4.4,4-6.4
	c0.2-0.3,0.5-0.7,0.3-1.1c-0.1-0.2-0.4-0.4-0.6-0.5c-4.6-2.1-9.4-4.2-14.4-4.9c-1.5-0.2-4.2-0.8-5.3,0.7S802,306.3,801.8,308.1z"/>
<path class="st2" d="M801.8,308.1c-0.4,3.8-4.2,6.4-7.7,7.9l22.5,7.2c-1.5-2.8-0.3-6.2,1.2-9c1.2-2.2,2.5-4.4,4-6.4
	c0.2-0.3,0.5-0.7,0.3-1.1c-0.1-0.2-0.4-0.4-0.6-0.5c-4.6-2.1-9.4-4.2-14.4-4.9c-1.5-0.2-4.2-0.8-5.3,0.7S802,306.3,801.8,308.1z"/>
<circle class="st5" cx="814.9" cy="293.6" r="17.6"/>
<path class="st7" d="M830.1,438.5c-1.7,2-4.7,2.4-7.3,2c-6.2-1-11.2-5.5-17.2-7.2c-7.4-2-15.2,0.6-22.2,3.7s-13.9,7-21.5,7.5
	c6.9-15.4,3-33.8,9.5-49.3c1.6-3.8,3.9-7.4,4.2-11.5c0.5-5.1-2.1-10-2.5-15.1c-0.4-4.5,1-9,2.3-13.3l4.8-15.8
	c1.8-5.9,3.7-11.9,7.1-17c1.3-1.9,1.7-5.7,3.6-6.8c4.3-2.5,10.8,0.7,15.4,0.8s8.9,3.5,11.6,7.2c2.9,3.9,4.5,8.6,6,13.3
	c2.4,6.9,4.2,14,5.3,21.2c0.2,1.1,0.3,2.2,0.4,3.2c1,10.3-0.5,20.6-0.5,30.9c0,0,0,0,0,0.1c-0.1,13.1,2,26.1,2.4,39.2
	C831.7,434.1,831.6,436.8,830.1,438.5z"/>
<path class="st2" d="M829.2,392.5c-3.5-0.9-6.6-3.1-9.2-5.5c-2.3-2.1-4.4-4.4-6.1-7c-2.2-3.5-4-7.2-5.3-11.2
	c-3.7-10.4-6.1-21.3-7-32.3c-0.3-3-0.3-6.2,1.5-8.6c2.1-2.7,5.7-3.5,8.7-2.1c2.4,1.2,3.9,3.5,5.3,5.7c2.8,4.4,5.7,8.9,7.5,13.8
	c0.8,2.2,1.4,4.4,2.2,6.6c0.8,2.2,1.7,4.3,2.7,6.3c0.2,1.1,0.3,2.2,0.4,3.2C830.7,371.9,829.3,382.2,829.2,392.5z"/>
<path class="st7" d="M803,326.1c-1.8,2.4-1.7,5.6-1.5,8.6c0.9,11,3.3,21.9,7,32.3c1.3,3.9,3.1,7.7,5.3,11.2c1.8,2.6,3.8,4.9,6.1,7
	c3.4,3.1,7.5,5.9,12.2,5.9c2.6-0.1,5.1-0.7,7.6-1.7l37.5-12.7c0.4-2.2-1.1-4.6-1.8-6.7l-2-5.9c-0.6-1.6-1.2-3.4-2.7-4.3
	s-3.8,0.3-5.1,1.3s-2.2,2.3-3.4,3.3c-2.3,1.9-5.4,2.6-8.3,3.3l-8.4,1.9c-3.1,0.8-6.2,1.2-9.4,1.2c-2.3-7.2-6.8-13.5-9.3-20.6
	c-0.8-2.2-1.4-4.4-2.2-6.6c-1.8-4.9-4.6-9.4-7.5-13.8c-1.4-2.2-2.9-4.6-5.3-5.7C808.7,322.6,805.1,323.4,803,326.1z"/>
<path class="st11" d="M809.2,297.5c0.1-1.2,0.5-2.3,1.1-3.3c0.6-1,1.8-1.6,3-1.3c1.8,0.5,2.3,3.3,4.2,3.4c1.2,0.1,2.1-1.2,2.5-2.4
	s0.6-2.5,1.5-3.4c0.6-0.5,1.4-0.8,2.2-1c4.3-1.4,8.7-3.9,10.1-8.1c0.3-0.9,0.4-1.8,0.2-2.7c-0.7-2.7-4-3.5-6.5-4.5s-5-2.6-7.5-3.9
	s-5.4-2.2-8.2-1.5c-1.4,0.4-2.8,1-4.1,1.5c-4.1,1.4-9.2,0.8-12.4,3.8c-1.4,1.5-2.4,3.3-3,5.2c-2.2,6.2-3.7,13.6,0,19.1
	c2.3,3.4,4.5,7.2,8.9,7.6C806.4,306.5,808.4,301.9,809.2,297.5z"/>
<g class="st14">
	<path d="M817,291.8c0.4-1.2,0.6-2.5,1.5-3.4c0.6-0.5,1.4-0.8,2.2-1c4.3-1.4,8.7-3.8,10.1-8.1c0.3-0.9,0.4-1.8,0.2-2.7
		c-0.1-0.4-0.3-0.8-0.5-1.2c1.6,0.7,3,1.6,3.5,3.3c0.2,0.9,0.1,1.8-0.2,2.7c-1.4,4.2-5.8,6.8-10.1,8.1c-0.8,0.2-1.5,0.5-2.2,1
		c-0.9,0.8-1.1,2.2-1.5,3.4s-1.3,2.5-2.5,2.4s-1.8-1.2-2.6-2.1C815.9,294,816.7,292.9,817,291.8z"/>
	<path d="M798.3,303.9c5.1,0.5,7.2-4.2,8-8.5c0.1-1.2,0.5-2.3,1.1-3.3c0.6-1,1.8-1.6,3-1.3c1,0.3,1.6,1.2,2.2,2
		c-0.9,0.1-1.8,0.6-2.3,1.4c-0.6,1-0.9,2.1-1.1,3.3c-0.8,4.3-2.8,9-8,8.5c-2-0.2-3.9-1.2-5.3-2.7
		C796.7,303.6,797.5,303.9,798.3,303.9z"/>
</g>
<path class="st12" d="M66.2,505.5l19.1-11.3c-2.6-4.4-5.9-8.4-9.8-11.7l-36.1,11.2l28.3-16.6c-22.3-12.2-50.2-4-62.4,18.2
	c-3.7,6.8-5.7,14.4-5.7,22.1c0,25.4,20.6,26.3,46,26.3s46-0.9,46-26.3c0-6.4-1.4-12.8-4-18.7L66.2,505.5z"/>
<path class="st2" d="M71,530.2c-2-2-4.3-3.8-6.8-5.3c-3.5-2.3-7.1-4.7-11.2-5.5c-3.6-0.7-7.3-0.1-11-0.3c-6.4-0.4-12.4-3.1-16.8-7.7
	c-2.6-2.7-4.7-6-7.8-8.1c-3.4-2.2-7.7-2.7-11.7-2.2c-1.2,0.2-2.3,0.4-3.5,0.7c-1.8,5-2.7,10.3-2.7,15.6c0,25.4,20.6,26.3,46,26.3
	c12.3,0,23.5-0.2,31.8-3.3l-1.4-2.6C74.7,535.1,73,532.5,71,530.2z"/>
<path class="st12" d="M479.4,569.8L454,554.9c3.4-5.9,7.8-11.1,13-15.5l47.9,14.9l-37.5-22.1c29.5-16.2,66.6-5.4,82.8,24.2
	c4.9,9,7.5,19.1,7.5,29.3c0,33.7-27.3,34.9-61,34.9s-61-1.2-61-34.9c0-8.5,1.8-17,5.2-24.8L479.4,569.8z"/>
<path class="st2" d="M472.9,602.5c2.7-2.7,5.7-5.1,9-7.1c4.6-3.1,9.4-6.2,14.8-7.2c4.8-0.9,9.7-0.1,14.5-0.4
	c8.4-0.5,16.4-4.2,22.3-10.2c3.5-3.6,6.2-8,10.4-10.7c4.5-3,10.2-3.6,15.5-2.8c1.6,0.2,3.1,0.5,4.6,0.9c2.4,6.6,3.6,13.6,3.6,20.7
	c0,33.7-27.3,34.9-61,34.9c-16.3,0-31.2-0.3-42.2-4.4l1.8-3.4C468.2,609.1,470.2,605.5,472.9,602.5z"/>
</svg>
